HIERARCHY
ROOT joint_Root
{
	OFFSET 0.0 0.0 0.0
	CHANNELS 6 Xposition Yposition Zposition Zrotation Xrotation Yrotation 
	JOINT Hips
	{
		OFFSET 4.5925 91.4895 -427.239
		CHANNELS 6 Xposition Yposition Zposition Zrotation Xrotation Yrotation 
		JOINT Spine
		{
			OFFSET 15.7357 0.0 0.0
			CHANNELS 6 Xposition Yposition Zposition Zrotation Xrotation Yrotation 
			JOINT Chest
			{
				OFFSET 8.98455 -0.406207 0.0
				CHANNELS 6 Xposition Yposition Zposition Zrotation Xrotation Yrotation 
				JOINT Neck
				{
					OFFSET 16.3773 0.0 0.0
					CHANNELS 6 Xposition Yposition Zposition Zrotation Xrotation Yrotation 
					JOINT Head
					{
						OFFSET 6.45672 0.0 0.0
						CHANNELS 6 Xposition Yposition Zposition Zrotation Xrotation Yrotation 
						End Site
						{
							OFFSET 0.0 0.0 0.0
						}
					}
				}
				JOINT Shoulder_L
				{
					OFFSET 12.9942 -0.242716 4.98039
					CHANNELS 6 Xposition Yposition Zposition Zrotation Xrotation Yrotation 
					JOINT UpperArm_L
					{
						OFFSET 5.34809 0.0 0.0
						CHANNELS 6 Xposition Yposition Zposition Zrotation Xrotation Yrotation 
						JOINT LowerArm_L
						{
							OFFSET 24.3286 1.87007e-05 0.0
							CHANNELS 6 Xposition Yposition Zposition Zrotation Xrotation Yrotation 
							JOINT Hand_L
							{
								OFFSET 22.2916 0.0 0.0
								CHANNELS 6 Xposition Yposition Zposition Zrotation Xrotation Yrotation 
								End Site
								{
									OFFSET 0.0 0.0 0.0
								}
							}
						}
					}
				}
				JOINT Shoulder_R
				{
					OFFSET 12.9945 -0.242716 -4.98039
					CHANNELS 6 Xposition Yposition Zposition Zrotation Xrotation Yrotation 
					JOINT UpperArm_R
					{
						OFFSET -5.34813 0.0 0.0
						CHANNELS 6 Xposition Yposition Zposition Zrotation Xrotation Yrotation 
						JOINT LowerArm_R
						{
							OFFSET -24.3289 0.000322201 0.0
							CHANNELS 6 Xposition Yposition Zposition Zrotation Xrotation Yrotation 
							JOINT Hand_R
							{
								OFFSET -22.2915 -0.000108084 0.0
								CHANNELS 6 Xposition Yposition Zposition Zrotation Xrotation Yrotation 
								End Site
								{
									OFFSET 0.0 0.0 0.0
								}
							}
						}
					}
				}
			}
		}
		JOINT UpperLeg_L
		{
			OFFSET -2.19248 -6.46944 0.0
			CHANNELS 6 Xposition Yposition Zposition Zrotation Xrotation Yrotation 
			JOINT LowerLeg_L
			{
				OFFSET 39.0811 0.0 -1.23785e-05
				CHANNELS 6 Xposition Yposition Zposition Zrotation Xrotation Yrotation 
				JOINT Foot_L
				{
					OFFSET 40.9854 0.0 -1.26872e-05
					CHANNELS 6 Xposition Yposition Zposition Zrotation Xrotation Yrotation 
					JOINT Toes_L
					{
						OFFSET 11.7543 0.0 0.0
						CHANNELS 6 Xposition Yposition Zposition Zrotation Xrotation Yrotation 
						End Site
						{
							OFFSET 0.0 0.0 0.0
						}
					}
				}
			}
		}
		JOINT UpperLeg_R
		{
			OFFSET -2.19251 6.46944 0.0
			CHANNELS 6 Xposition Yposition Zposition Zrotation Xrotation Yrotation 
			JOINT LowerLeg_R
			{
				OFFSET -39.0811 -0.00228153 -0.0401928
				CHANNELS 6 Xposition Yposition Zposition Zrotation Xrotation Yrotation 
				JOINT Foot_R
				{
					OFFSET -40.9854 0.0 0.0
					CHANNELS 6 Xposition Yposition Zposition Zrotation Xrotation Yrotation 
					JOINT Toes_R
					{
						OFFSET -11.7543 0.0 0.0
						CHANNELS 6 Xposition Yposition Zposition Zrotation Xrotation Yrotation 
						End Site
						{
							OFFSET 0.0 0.0 0.0
						}
					}
				}
			}
		}
	}
}
MOTION
Frames:	4
Frame Time:	0.0333333
0.000000 0.000000 0.000000 0.000000 0.000000 -0.000000 98.517200 86.645500 173.299000 -78.482800 33.298400 169.919000 15.735700 0.000005 -0.000001 54.006900 83.965400 -51.109400 8.984550 -0.406207 -0.000000 2.205510 -7.228600 5.934890 16.377300 -0.000001 -0.000001 -1.843360 2.944930 2.588400 6.456720 -0.000001 -0.000000 -7.283250 11.404500 0.965134 12.994200 -0.242716 4.980390 -90.590300 2.451000 -76.454800 5.348090 -0.000007 -0.000001 -20.931500 62.599900 -69.119900 24.328600 0.000019 0.000005 14.550200 2.766130 -79.469100 22.291600 -0.000001 0.000005 14.792800 5.444130 -4.432900 12.994500 -0.242716 -4.980390 87.490900 10.631500 -76.639300 -5.348130 -0.000001 -0.000004 -73.612000 16.613400 12.419500 -24.328900 0.000322 -0.000009 0.384842 14.690100 -1.525040 -22.291500 -0.000108 -0.000004 5.107730 5.146630 4.027480 -2.192480 -6.469440 -0.000000 -174.099000 2.202570 5.826950 39.081100 -0.000007 -0.000012 -0.009796 0.012469 38.161100 40.985400 -0.000006 -0.000013 14.289800 28.913600 -66.385700 11.754300 -0.000000 0.000003 -0.105188 -0.457260 -35.687700 -2.192510 6.469440 -0.000001 -172.891000 0.904170 147.722000 -39.081100 -0.002282 -0.040193 -0.279256 0.298420 43.433100 -40.985400 0.000008 0.000006 -0.785787 3.415590 -65.252200 -11.754300 -0.000006 -0.000006 -0.006323 -0.073742 -19.574600
0.000000 0.000000 0.000000 0.000000 0.000000 -0.000000 102.058000 85.788200 169.472000 -78.670700 31.570400 173.093000 15.735700 0.000005 -0.000001 54.641500 82.961000 -51.552600 8.984550 -0.406207 -0.000000 3.979540 -8.237560 6.466100 16.377300 -0.000001 -0.000001 -1.560580 3.049010 2.415300 6.456720 -0.000001 -0.000000 -7.159880 11.907800 0.924266 12.994200 -0.242716 4.980390 -90.703400 2.953820 -76.598000 5.348090 -0.000007 -0.000001 -23.940200 64.011900 -64.536900 24.328600 0.000019 0.000005 16.036000 4.668530 -74.197600 22.291600 -0.000001 0.000005 14.581300 5.455500 -4.837150 12.994500 -0.242716 -4.980390 87.016200 11.877400 -75.789600 -5.348130 -0.000001 -0.000004 -70.625000 18.348500 9.528190 -24.328900 0.000322 -0.000009 0.670880 10.318500 -3.755940 -22.291500 -0.000108 -0.000004 6.477770 5.202150 2.675170 -2.192480 -6.469440 -0.000000 -172.723000 4.268100 3.510510 39.081100 -0.000007 -0.000012 -0.063802 0.056064 48.695700 40.985400 -0.000006 -0.000013 -5.423990 28.894800 -51.060300 11.754300 -0.000000 0.000003 -0.074920 -0.377501 -32.228600 -2.192510 6.469440 -0.000001 -172.456000 -1.699730 152.145000 -39.081100 -0.002282 -0.040193 -0.333496 0.298927 48.405500 -40.985400 0.000008 0.000006 -0.099491 -1.326770 -71.919600 -11.754300 -0.000006 -0.000006 -0.002251 -0.031810 -17.866600
0.000000 0.000000 0.000000 0.000000 0.000000 -0.000000 104.733000 85.116200 166.181000 -79.390000 29.631900 175.588000 15.735700 0.000005 -0.000001 56.555400 82.322400 -53.356900 8.984550 -0.406207 -0.000000 5.339760 -8.512360 6.796860 16.377300 -0.000001 -0.000001 -1.496500 2.263730 2.462190 6.456720 -0.000001 -0.000000 -7.519330 11.851900 0.945813 12.994200 -0.242716 4.980390 -90.691100 3.183660 -77.743800 5.348090 -0.000007 -0.000001 -25.036500 64.736400 -63.910600 24.328600 0.000019 0.000005 16.072800 8.233200 -63.571000 22.291600 -0.000001 0.000005 14.688200 5.451970 -4.710280 12.994500 -0.242716 -4.980390 86.577100 12.872400 -74.971700 -5.348130 -0.000001 -0.000004 -67.357300 19.766000 5.507050 -24.328900 0.000322 -0.000009 0.670551 5.729370 -6.713750 -22.291500 -0.000108 -0.000004 9.277000 5.258390 1.227900 -2.192480 -6.469440 -0.000000 -172.413000 6.431050 -2.359880 39.081100 -0.000007 -0.000012 0.006433 -0.003726 59.889400 40.985400 -0.000006 -0.000013 -23.681600 17.721800 -35.723400 11.754300 -0.000000 0.000003 -0.004355 -0.055094 -18.818100 -2.192510 6.469440 -0.000001 -172.439000 3.745930 156.166000 -39.081100 -0.002282 -0.040193 -0.372413 0.303467 51.068100 -40.985400 0.000008 0.000006 1.930950 0.982580 -76.787300 -11.754300 -0.000006 -0.000006 -0.000893 -0.013881 -17.137700
0.000000 0.000000 0.000000 0.000000 0.000000 -0.000000 106.828000 85.268500 163.002000 -79.861500 30.276400 176.633000 15.735700 0.000005 -0.000001 62.659900 82.483500 -59.437500 8.984550 -0.406207 -0.000000 5.825060 -6.941650 6.797530 16.377300 -0.000001 -0.000001 -1.449160 1.859660 2.875560 6.456720 -0.000001 -0.000000 -7.545380 11.280200 1.026580 12.994200 -0.242716 4.980390 -90.762000 3.802850 -78.660200 5.348090 -0.000007 -0.000001 -21.983600 65.230800 -68.522600 24.328600 0.000019 0.000005 12.705300 11.861300 -47.635600 22.291600 -0.000001 0.000005 13.254200 5.415270 -3.421470 12.994500 -0.242716 -4.980390 86.627400 13.279400 -75.610600 -5.348130 -0.000001 -0.000004 -64.365500 19.995000 1.099990 -24.328900 0.000322 -0.000009 0.507147 2.953440 -9.774120 -22.291500 -0.000108 -0.000004 13.226400 5.312220 -0.255396 -2.192480 -6.469440 -0.000000 -173.565000 3.156940 -7.859890 39.081100 -0.000007 -0.000012 0.001240 -0.000446 69.976300 40.985400 -0.000006 -0.000013 -13.084600 10.750300 -45.642700 11.754300 -0.000000 0.000003 -0.006169 -0.072368 -19.522200 -2.192510 6.469440 -0.000001 -173.115000 7.086910 160.461000 -39.081100 -0.002282 -0.040193 -0.136574 0.116119 50.290800 -40.985400 0.000008 0.000006 5.174140 3.597310 -79.699700 -11.754300 -0.000006 -0.000006 -0.000608 -0.009670 -16.966600
